<svg width="56" height="86" viewBox="0 0 56 86" fill="none" xmlns="http://www.w3.org/2000/svg">
<path d="M45.2706 0L35.5622 26.867H30.1677L39.8478 0.0219437V0H45.2706Z" fill="#9871F3"/>
<path d="M39.8476 0V0.0219437L30.1675 26.867H24.8408L34.521 0.0219437V0H39.8476Z" fill="#F0F0F0"/>
<path d="M34.5213 0V0.0219437L24.8412 26.867H19.3994L29.1079 0H34.5213Z" fill="#6F9DE2"/>
<path d="M39.355 27.2671C40.0679 28.8428 40.4638 30.5387 40.527 32.2597C36.7114 30.3277 32.3879 29.2382 27.8089 29.2382C22.9744 29.2382 18.4269 30.4527 14.46 32.5879C14.4805 30.7544 14.8827 28.9427 15.6399 27.267L15.9932 26.4871C16.3875 25.6133 17.2078 25.0021 18.1652 24.8693L19.2078 24.7239C24.7064 23.9611 30.2885 23.9611 35.7887 24.7239L36.8297 24.8693C37.7872 25.0022 38.6074 25.6133 39.0018 26.4871L39.355 27.2671ZM36.5489 28.0346V27.0092C36.5489 26.7122 36.3059 26.4715 36.0063 26.4715H18.9884C18.6888 26.4715 18.4458 26.7122 18.4458 27.0092V28.0346C18.4458 28.3331 18.6888 28.5739 18.9884 28.5739H36.0063C36.3059 28.5739 36.5489 28.3332 36.5489 28.0346Z" fill="#F69C62"/>
<path d="M9.68945 0L19.3979 26.867H24.7924L15.1124 0.0219437V0H9.68945Z" fill="#6F9DE2"/>
<path d="M15.1123 0V0.0219437L24.7924 26.867H30.119L20.4389 0.0219437V0H15.1123Z" fill="#F0F0F0"/>
<path d="M20.4395 0V0.0219437L30.1195 26.867H35.5613L25.8529 0H20.4395Z" fill="#9871F3"/>
<path d="M40.7172 32.2597C49.7885 36.849 56 46.198 56 56.9851C56 72.3099 43.4634 84.7337 27.9993 84.7337C12.5351 84.7337 0 72.31 0 56.9851C0 46.4512 5.92291 37.2882 14.6502 32.5879C18.6172 30.4527 23.1646 29.2382 27.9992 29.2382C32.5782 29.2382 36.9016 30.3276 40.7172 32.2597Z" fill="#E68A54"/>
<path d="M27.9992 82.5223C21.1161 82.5223 14.6453 79.8659 9.77849 75.0425C4.91167 70.2192 2.23145 63.8062 2.23145 56.9851C2.23145 47.6144 7.39803 39.0108 15.7149 34.5316C19.4609 32.5153 23.7088 31.4495 27.9992 31.4495C32.1221 31.4495 36.0597 32.3848 39.7028 34.2295C43.8692 36.3373 47.3839 39.5324 49.8675 43.4695C52.4196 47.5155 53.7685 52.1891 53.7685 56.9852C53.7685 63.8062 51.088 70.2192 46.2208 75.0426C41.3535 79.8659 34.8823 82.5223 27.9992 82.5223Z" fill="#F69C62"/>
<path d="M23.4245 32.7095C23.4222 32.7112 23.4223 32.7129 23.4202 32.7145C23.2997 32.8215 21.5922 34.3778 20.9222 35.7318C20.2261 37.1343 18.0629 38.5401 18.0626 38.5405C18.0588 38.5408 18.1339 36.3935 19.0415 35.4084C20.1239 34.2198 23.3242 32.7533 23.4245 32.7095Z" fill="#BC7546"/>
<path d="M22.7284 33.8308C22.3419 34.7613 22.1176 35.5634 21.5564 36.5926C21.2292 37.1931 19.6745 38.2271 18.7349 38.4503C18.3593 38.589 18.0625 38.5407 18.0625 38.5407C18.0629 38.54 20.226 37.1343 20.922 35.7318C21.592 34.3778 23.2993 32.8216 23.4201 32.7146C23.368 32.7835 22.931 33.3456 22.7284 33.8308Z" fill="#F9C8A9"/>
<path d="M25.9629 37.1515C25.9601 37.1519 25.9587 37.153 25.9559 37.1533C25.7867 37.1762 23.3565 37.523 21.8075 38.2526C20.2023 39.01 17.5479 38.9589 17.5479 38.9589C17.5457 38.9579 19.3219 37.2761 20.7404 36.9704C22.4442 36.5998 25.8556 37.1347 25.9629 37.1515Z" fill="#BC7546"/>
<path d="M24.5886 37.689C23.5819 38.2365 22.789 38.765 21.5733 39.2908C20.8642 39.5983 18.9355 39.5851 18.0939 39.252C17.7172 39.1586 17.5479 38.9585 17.5479 38.9585C17.5479 38.9585 20.2024 39.01 21.8075 38.2525C23.3563 37.5229 25.7867 37.1761 25.9559 37.1533C25.8648 37.1814 25.1139 37.4041 24.5886 37.689Z" fill="#F9C8A9"/>
<path d="M18.192 35.7625C18.1903 35.7644 18.1905 35.766 18.1887 35.768C18.0881 35.8874 16.6781 37.6215 16.2734 39.0312C15.851 40.491 13.9651 42.1374 13.9653 42.1378C13.9614 42.1384 13.6089 40.0239 14.324 38.9469C15.1732 37.6484 18.099 35.8175 18.192 35.7625Z" fill="#BC7546"/>
<path d="M17.7118 36.9462C17.5058 37.9051 17.438 38.7186 17.0779 39.7967C16.8674 40.4256 15.5154 41.6312 14.6198 41.9664C14.2712 42.1489 13.9648 42.138 13.9648 42.138C13.9645 42.1375 15.8507 40.4912 16.273 39.0313C16.6774 37.6217 18.0877 35.8877 18.1883 35.7681C18.1493 35.842 17.82 36.4461 17.7118 36.9462Z" fill="#F9C8A9"/>
<path d="M21.5981 39.8043C21.5956 39.8049 21.5941 39.8063 21.5915 39.8069C21.4267 39.8499 19.0613 40.4872 17.6547 41.3937C16.1979 42.3338 13.5327 42.6118 13.5322 42.6116C13.5295 42.6111 14.9729 40.7422 16.3342 40.2675C17.9683 39.6933 21.4884 39.8004 21.5981 39.8043Z" fill="#BC7546"/>
<path d="M20.3272 40.4998C19.4266 41.1601 18.7367 41.7759 17.6246 42.4414C16.9764 42.83 15.0455 43.0546 14.1371 42.832C13.742 42.787 13.5322 42.6116 13.5322 42.6116C13.5328 42.6119 16.198 42.3338 17.6547 41.3937C19.0612 40.4873 21.4267 39.85 21.5915 39.8069C21.5058 39.8457 20.7977 40.1557 20.3272 40.4998Z" fill="#F9C8A9"/>
<path d="M13.3021 39.6292C13.3009 39.6314 13.3016 39.6329 13.3005 39.6351C13.2362 39.7688 12.3659 41.7007 12.398 43.1292C12.4258 44.609 11.0732 46.5551 11.0743 46.5557C11.0709 46.5565 10.0689 44.5989 10.4442 43.4293C10.8819 42.0203 13.2255 39.6996 13.3021 39.6292Z" fill="#BC7546"/>
<path d="M13.1859 40.854C13.2735 41.811 13.454 42.6027 13.4273 43.7056C13.4108 44.3489 12.4461 45.7675 11.6669 46.2634C11.3796 46.5063 11.074 46.5557 11.074 46.5557C11.0731 46.555 12.4257 44.609 12.3978 43.1292C12.3655 41.7007 13.2359 39.7687 13.3003 39.6351C13.284 39.7133 13.1408 40.3547 13.1859 40.854Z" fill="#F9C8A9"/>
<path d="M17.8936 42.8381C17.8911 42.8392 17.8901 42.8408 17.8878 42.8419C17.7379 42.9147 15.5933 43.9824 14.4829 45.1247C13.333 46.3085 10.7937 47.094 10.7937 47.094C10.7897 47.094 11.6353 45.0205 12.8356 44.3013C14.2741 43.4325 17.7845 42.8549 17.8936 42.8381Z" fill="#BC7546"/>
<path d="M16.8489 43.7503C16.1595 44.5578 15.6661 45.2822 14.7734 46.1361C14.2532 46.6345 12.4214 47.2243 11.4577 47.1877C11.0546 47.2213 10.7935 47.0941 10.7937 47.094C10.7944 47.0939 13.3335 46.3085 14.4834 45.1247C15.5939 43.9823 17.7384 42.9147 17.8883 42.8419C17.8152 42.8955 17.2092 43.3294 16.8489 43.7503Z" fill="#F9C8A9"/>
<path d="M9.77064 43.9567C9.76979 43.959 9.77087 43.9603 9.76994 43.9626C9.72643 44.1006 9.16165 46.091 9.42356 47.5C9.68803 48.9601 8.64851 51.0128 8.64983 51.0133C8.64681 51.0142 7.3274 49.1724 7.51421 47.9813C7.72449 46.5471 9.70437 44.0333 9.77064 43.9567Z" fill="#BC7546"/>
<path d="M9.84912 45.1775C10.09 46.1147 10.3971 46.8802 10.5468 47.9732C10.6331 48.6108 9.89457 50.1048 9.19523 50.6688C8.94686 50.936 8.64942 51.0136 8.64942 51.0136C8.64779 51.0132 9.68746 48.9604 9.42315 47.5004C9.16116 46.0912 9.72625 44.101 9.76953 43.963C9.76566 44.0415 9.72425 44.6886 9.84912 45.1775Z" fill="#F9C8A9"/>
<path d="M14.8837 46.6965C14.8813 46.6979 14.881 46.6995 14.8786 46.7008C14.7397 46.7867 12.7606 48.0432 11.832 49.2774C10.8699 50.5563 8.4579 51.5722 8.45705 51.5725C8.45334 51.5726 8.96393 49.4419 10.0512 48.6177C11.3523 47.6229 14.7772 46.7232 14.8837 46.6965Z" fill="#BC7546"/>
<path d="M13.9812 47.6965C13.4187 48.5597 13.0403 49.3224 12.2836 50.2511C11.8427 50.793 10.1059 51.5481 9.13632 51.6028C8.73861 51.674 8.45703 51.5726 8.45703 51.5726C8.45781 51.5723 10.8698 50.5564 11.832 49.2775C12.7604 48.0433 14.7396 46.7869 14.8785 46.7009C14.814 46.7606 14.2752 47.2464 13.9812 47.6965Z" fill="#F9C8A9"/>
<path d="M7.09343 48.6791C7.09351 48.6814 7.09452 48.6827 7.09428 48.685C7.08592 48.8258 7.03281 50.8505 7.65264 52.1825C8.2864 53.5634 7.78619 55.7289 7.78836 55.7292C7.78642 55.7302 6.00776 54.14 5.8859 52.9509C5.72339 51.5204 7.04574 48.7637 7.09343 48.6791Z" fill="#BC7546"/>
<path d="M7.4824 49.8542C7.95994 50.7284 8.45892 51.4257 8.88543 52.4677C9.13286 53.0755 8.78424 54.648 8.23873 55.3076C8.06221 55.6072 7.78837 55.7293 7.78837 55.7293C7.78605 55.729 8.28649 53.5634 7.65265 52.1825C7.03274 50.8504 7.08594 48.8259 7.0943 48.6851C7.11009 48.7623 7.23388 49.398 7.4824 49.8542Z" fill="#F9C8A9"/>
<path d="M12.8554 50.548C12.8535 50.5496 12.8535 50.5513 12.8514 50.553C12.7353 50.6581 11.0918 52.1905 10.4883 53.5394C9.86179 54.9367 7.74294 56.3045 7.74247 56.305C7.7386 56.3055 7.69409 54.1466 8.55965 53.1735C9.59167 51.9999 12.7563 50.5901 12.8554 50.548Z" fill="#BC7546"/>
<path d="M12.214 51.6632C11.875 52.5926 11.6935 53.3955 11.1823 54.4196C10.884 55.017 9.36318 56.0242 8.42097 56.2287C8.04727 56.3602 7.74269 56.3051 7.74292 56.3051C7.74315 56.3047 9.86216 54.9369 10.4887 53.5396C11.0921 52.1906 12.7356 50.6584 12.8518 50.5531C12.8027 50.6214 12.3915 51.1787 12.214 51.6632Z" fill="#F9C8A9"/>
<path d="M5.56932 53.5476C5.56978 53.5499 5.57125 53.551 5.57156 53.5532C5.59718 53.6919 6.04034 55.6778 6.97953 56.8901C7.94357 58.1477 7.98136 60.3441 7.98438 60.3442C7.98321 60.3451 5.83688 59.0483 5.42253 57.9032C4.90784 56.5269 5.54152 53.637 5.56932 53.5476Z" fill="#BC7546"/>
<path d="M6.24129 54.6382C6.92763 55.4222 7.59159 56.0303 8.26716 56.9877C8.65984 57.5462 8.69986 59.1381 8.32437 59.8649C8.22373 60.1845 7.98418 60.3445 7.98418 60.3445C7.98116 60.3444 7.94323 58.148 6.97926 56.8904C6.04007 55.6781 5.59692 53.6921 5.57129 53.5535C5.60597 53.6264 5.88384 54.2291 6.24129 54.6382Z" fill="#F9C8A9"/>
<path d="M11.7264 54.5251C11.7249 54.5271 11.7251 54.5287 11.7236 54.5307C11.6338 54.6505 10.3776 56.3918 10.1111 57.802C9.83172 59.2629 8.08039 60.915 8.08054 60.9156C8.07675 60.9163 7.50106 58.8065 8.11771 57.7266C8.84833 56.4252 11.6377 54.5806 11.7264 54.5251Z" fill="#BC7546"/>
<path d="M11.3598 55.7114C11.2491 56.6712 11.2643 57.4845 11.0087 58.5633C10.8597 59.1926 9.60673 60.4027 8.72917 60.7415C8.39301 60.9253 8.07983 60.9159 8.07983 60.9159C8.0796 60.9155 9.83094 59.2632 10.1104 57.8023C10.3771 56.3919 11.6331 54.651 11.7229 54.531C11.6907 54.605 11.4184 55.2108 11.3598 55.7114Z" fill="#F9C8A9"/>
<path d="M5.49902 59.2175C5.50034 59.2196 5.50196 59.2204 5.50313 59.2225C5.57443 59.3505 6.67202 61.1708 7.98818 62.1501C9.34296 63.1671 10.1165 65.2839 10.12 65.2835C10.1196 65.284 7.61098 64.4635 6.82245 63.4436C5.85849 62.2196 5.5008 59.3088 5.49902 59.2175Z" fill="#BC7546"/>
<path d="M6.5173 60.1299C7.44604 60.7447 8.29325 61.1961 9.26736 61.9832C9.83392 62.4425 10.4047 63.9727 10.2868 64.7514C10.2971 65.0807 10.12 65.2837 10.1198 65.2837C10.1163 65.284 9.34246 63.1673 7.98798 62.1503C6.67183 61.1708 5.57423 59.3505 5.50293 59.2226C5.5613 59.2856 6.03327 59.8087 6.5173 60.1299Z" fill="#F9C8A9"/>
<path d="M11.8026 58.908C11.8019 58.9102 11.8025 58.9116 11.8017 58.9139C11.7529 59.0478 11.1103 60.9807 11.3229 62.3973C11.5379 63.8653 10.4036 65.8164 10.405 65.817C10.4017 65.818 9.13479 63.8937 9.36992 62.727C9.6388 61.3221 11.7335 58.9792 11.8026 58.908Z" fill="#BC7546"/>
<path d="M11.8393 60.1262C12.0494 61.075 12.3332 61.8578 12.4448 62.9524C12.509 63.5909 11.7042 65.0134 10.9725 65.5176C10.7103 65.7631 10.4053 65.8169 10.4053 65.8169C10.404 65.8165 11.538 63.8651 11.3232 62.3973C11.1106 60.9806 11.7534 59.0477 11.8021 58.9138C11.7955 58.9918 11.7303 59.6313 11.8393 60.1262Z" fill="#F9C8A9"/>
<path d="M6.86572 64.0339C6.86712 64.0359 6.86874 64.0367 6.87014 64.0387C6.95166 64.1636 8.19488 65.9384 9.59078 66.8689C11.0282 67.8354 11.9687 69.9174 11.9719 69.9169C11.9718 69.9176 9.3939 69.1852 8.52338 68.1967C7.4607 67.0107 6.87463 64.1247 6.86572 64.0339Z" fill="#BC7546"/>
<path d="M7.95898 64.9073C8.93843 65.4879 9.82304 65.9083 10.8609 66.6589C11.4647 67.097 12.1556 68.6016 12.0983 69.3811C12.134 69.7089 11.9724 69.917 11.9724 69.917C11.9689 69.9174 11.0288 67.8355 9.59124 66.8689C8.19527 65.9384 6.95197 64.1637 6.87061 64.0388C6.93386 64.0995 7.44839 64.6041 7.95898 64.9073Z" fill="#F9C8A9"/>
<path d="M13.1634 63.5103C13.1629 63.5125 13.1635 63.5139 13.163 63.5162C13.1245 63.6511 12.6292 65.598 12.9524 67.0016C13.2811 68.4564 12.2974 70.438 12.2986 70.4386C12.2953 70.4396 10.8757 68.5661 11.0204 67.3963C11.18 65.988 13.0995 63.5836 13.1634 63.5103Z" fill="#BC7546"/>
<path d="M13.2936 64.7223C13.5776 65.6601 13.9225 66.4302 14.1191 67.5164C14.2329 68.1502 13.5368 69.5943 12.8432 70.1212C12.5994 70.3746 12.2981 70.4385 12.2981 70.4385C12.2969 70.438 13.2807 68.4565 12.952 67.0016C12.6287 65.598 13.1242 63.6511 13.1626 63.5162C13.1618 63.594 13.1462 64.233 13.2936 64.7223Z" fill="#F9C8A9"/>
<path d="M9.6145 69.3159C9.61651 69.3177 9.6186 69.3178 9.62062 69.3196C9.74488 69.4215 11.5914 70.8571 13.2625 71.4508C14.987 72.069 16.6506 73.8823 16.6541 73.8814C16.6547 73.8815 13.9428 73.7326 12.7462 72.9684C11.2941 72.0535 9.65623 69.4007 9.6145 69.3159Z" fill="#BC7546"/>
<path d="M10.9802 69.9163C12.1282 70.2601 13.1254 70.4715 14.3893 70.9699C15.1253 71.2608 16.3376 72.5668 16.5734 73.335C16.7295 73.6447 16.6539 73.8817 16.6539 73.8817C16.6505 73.8826 14.9868 72.0692 13.2622 71.451C11.5907 70.8572 9.74485 69.4216 9.62036 69.3198C9.7032 69.3642 10.3814 69.7365 10.9802 69.9163Z" fill="#F9C8A9"/>
<path d="M14.042 74.0646C14.0445 74.0661 14.0462 74.0659 14.0488 74.0673C14.196 74.1504 16.3554 75.3125 18.1324 75.6714C19.9678 76.0462 22.034 77.6152 22.0371 77.6141C22.0371 77.6141 19.3596 77.833 18.0035 77.2411C16.3614 76.5338 14.1039 74.1419 14.042 74.0646Z" fill="#BC7546"/>
<path d="M15.5254 74.4687C16.7321 74.6502 17.7581 74.7223 19.1141 75.0425C19.9041 75.2295 21.4064 76.3558 21.8244 77.0841C22.0527 77.3693 22.0371 77.6141 22.0371 77.6141C22.0342 77.615 19.9677 76.0461 18.1324 75.6714C16.3555 75.3123 14.1958 74.1503 14.0488 74.0673C14.141 74.0998 14.896 74.3734 15.5254 74.4687Z" fill="#F9C8A9"/>
<path d="M15.4214 67.4234C15.4215 67.4257 15.4229 67.4268 15.4231 67.4292C15.435 67.5679 15.6776 69.556 16.5031 70.8443C17.3503 72.1805 17.1559 74.3161 17.1585 74.3161C17.1568 74.3172 15.1141 72.8101 14.8162 71.6476C14.4419 70.2504 15.3852 67.5079 15.4214 67.4234Z" fill="#BC7546"/>
<path d="M15.9891 68.5655C16.6033 69.4098 17.2134 70.0794 17.7997 71.089C18.1403 71.678 18.0144 73.229 17.5552 73.8904C17.4192 74.189 17.1582 74.3163 17.1582 74.3163C17.1558 74.3162 17.3502 72.1806 16.5029 70.8444C15.6773 69.5561 15.4349 67.5679 15.4229 67.4293C15.4501 67.5045 15.6692 68.125 15.9891 68.5655Z" fill="#F9C8A9"/>
<path d="M18.9965 71.8284C18.997 71.8303 18.999 71.8311 18.9992 71.8331C19.0403 71.9511 19.6891 73.6372 20.6777 74.6499C21.6952 75.7009 21.9985 77.5757 22.0009 77.5755C22 77.5761 19.9292 76.5207 19.4167 75.553C18.7877 74.3905 18.9838 71.9059 18.9965 71.8284Z" fill="#BC7546"/>
<path d="M19.7349 72.7437C20.4464 73.3966 21.1153 73.9002 21.8373 74.7016C22.2573 75.1692 22.4902 76.5282 22.2448 77.1577C22.1945 77.4331 22.0004 77.5753 22.0004 77.5753C21.9981 77.5756 21.6947 75.7006 20.6773 74.6497C19.6888 73.6371 19.0399 71.9511 18.9988 71.833C19.039 71.8945 19.3642 72.4028 19.7349 72.7437Z" fill="#F9C8A9"/>
<path d="M31.5625 32.7095C31.5647 32.7112 31.5647 32.7129 31.5668 32.7145C31.6872 32.8215 33.3948 34.3778 34.0648 35.7318C34.7608 37.1343 36.9241 38.5401 36.9243 38.5405C36.9281 38.5408 36.853 36.3935 35.9455 35.4084C34.863 34.2198 31.6628 32.7533 31.5625 32.7095Z" fill="#BC7546"/>
<path d="M32.2582 33.8308C32.6447 34.7613 32.8691 35.5634 33.4302 36.5926C33.7573 37.1931 35.3121 38.2271 36.2517 38.4503C36.6272 38.589 36.924 38.5406 36.924 38.5406C36.9236 38.54 34.7606 37.1343 34.0645 35.7318C33.3945 34.3778 31.6871 32.8216 31.5664 32.7146C31.6187 32.7835 32.0558 33.3456 32.2582 33.8308Z" fill="#F9C8A9"/>
<path d="M29.0244 37.1515C29.0272 37.1519 29.0287 37.153 29.0314 37.1533C29.2005 37.1762 31.6307 37.523 33.1798 38.2526C34.785 39.01 37.4394 38.9589 37.4394 38.9589C37.4416 38.9579 35.6654 37.2761 34.2468 36.9704C32.543 36.5998 29.1317 37.1347 29.0244 37.1515Z" fill="#BC7546"/>
<path d="M30.3987 37.689C31.4054 38.2365 32.1983 38.765 33.414 39.2908C34.1231 39.5983 36.0518 39.5851 36.8934 39.252C37.27 39.1586 37.4395 38.9585 37.4395 38.9585C37.4395 38.9585 34.7849 39.01 33.1799 38.2525C31.631 37.5229 29.2007 37.1761 29.0315 37.1533C29.1225 37.1814 29.8733 37.4041 30.3987 37.689Z" fill="#F9C8A9"/>
<path d="M36.7959 35.7624C36.7976 35.7643 36.7974 35.7659 36.7992 35.7678C36.8999 35.8873 38.3099 37.6214 38.7145 39.031C39.1369 40.4909 41.0228 42.1372 41.0227 42.1377C41.0266 42.1382 41.3791 40.0238 40.6639 38.9468C39.8148 37.6483 36.8888 35.8174 36.7959 35.7624Z" fill="#BC7546"/>
<path d="M37.2754 36.9461C37.4814 37.905 37.5491 38.7185 37.9093 39.7966C38.1197 40.4255 39.4717 41.6311 40.3673 41.9662C40.7159 42.1488 41.0223 42.1379 41.0223 42.1379C41.0226 42.1373 39.1364 40.4911 38.7141 39.0312C38.3097 37.6216 36.8994 35.8875 36.7988 35.768C36.8379 35.8419 37.167 36.446 37.2754 36.9461Z" fill="#F9C8A9"/>
<path d="M33.3889 39.8042C33.3914 39.8048 33.3929 39.8062 33.3956 39.8068C33.5603 39.8499 35.9258 40.4871 37.3324 41.3936C38.7892 42.3337 41.4544 42.6117 41.4548 42.6115C41.4575 42.6111 40.0142 40.7421 38.6529 40.2675C37.0187 39.6933 33.4987 39.8003 33.3889 39.8042Z" fill="#BC7546"/>
<path d="M34.6597 40.4997C35.5604 41.1601 36.2502 41.7758 37.3624 42.4413C38.0105 42.8299 39.9415 43.0545 40.8499 42.8319C41.245 42.7869 41.4548 42.6115 41.4548 42.6115C41.4542 42.6118 38.789 42.3338 37.3323 41.3937C35.9258 40.4873 33.5603 39.8499 33.3955 39.8069C33.4811 39.8456 34.1892 40.1556 34.6597 40.4997Z" fill="#F9C8A9"/>
<path d="M41.6846 39.629C41.6858 39.6313 41.6851 39.6327 41.6862 39.6349C41.7505 39.7686 42.6209 41.7006 42.5887 43.1291C42.561 44.6088 43.9135 46.5549 43.9124 46.5555C43.9158 46.5563 44.9177 44.5987 44.5425 43.4291C44.1049 42.0201 41.7612 39.6994 41.6846 39.629Z" fill="#BC7546"/>
<path d="M41.8008 40.8539C41.7131 41.8109 41.5327 42.6026 41.5593 43.7055C41.5757 44.3488 42.5405 45.7674 43.3198 46.2633C43.6071 46.5062 43.9126 46.5555 43.9126 46.5555C43.9134 46.5549 42.5609 44.6088 42.5887 43.1291C42.621 41.7006 41.7506 39.7686 41.6862 39.6349C41.7025 39.7131 41.8458 40.3546 41.8008 40.8539Z" fill="#F9C8A9"/>
<path d="M37.0918 42.8381C37.0942 42.8392 37.0953 42.8408 37.0976 42.8419C37.2474 42.9147 39.392 43.9824 40.5024 45.1247C41.6524 46.3085 44.1916 47.094 44.1921 47.094C44.1957 47.094 43.3501 45.0205 42.1498 44.3013C40.7113 43.4325 37.2009 42.8549 37.0918 42.8381Z" fill="#BC7546"/>
<path d="M38.1369 43.7504C38.8263 44.5578 39.3195 45.2822 40.2122 46.1362C40.7324 46.6346 42.5643 47.2243 43.5279 47.1877C43.9311 47.2213 44.1922 47.0941 44.1919 47.0941C44.1912 47.094 41.6522 46.3086 40.5022 45.1248C39.3919 43.9824 37.2473 42.9148 37.0974 42.842C37.1705 42.8955 37.7765 43.3295 38.1369 43.7504Z" fill="#F9C8A9"/>
<path d="M45.2166 43.9566C45.2174 43.9589 45.2163 43.9603 45.2172 43.9626C45.2607 44.1005 45.8255 46.091 45.5636 47.5C45.2991 48.96 46.3386 51.0128 46.3373 51.0132C46.3403 51.0141 47.6597 49.1723 47.4729 47.9812C47.2628 46.5471 45.2828 44.0333 45.2166 43.9566Z" fill="#BC7546"/>
<path d="M45.1376 45.1774C44.8967 46.1146 44.5897 46.8801 44.44 47.9731C44.3536 48.6106 45.0922 50.1047 45.7915 50.6687C46.0399 50.9359 46.3374 51.0135 46.3374 51.0135C46.3389 51.0131 45.2993 48.9603 45.5636 47.5003C45.8256 46.0911 45.2605 44.1008 45.2172 43.9629C45.2211 44.0414 45.2625 44.6885 45.1376 45.1774Z" fill="#F9C8A9"/>
<path d="M40.1035 46.6964C40.1059 46.6978 40.1062 46.6995 40.1087 46.7008C40.2475 46.7866 42.2267 48.0431 43.1553 49.2774C44.1174 50.5563 46.5294 51.5721 46.5302 51.5725C46.5339 51.5726 46.0233 49.4418 44.936 48.6176C43.6351 47.6228 40.21 46.7231 40.1035 46.6964Z" fill="#BC7546"/>
<path d="M41.0057 47.6966C41.5682 48.5598 41.9466 49.3225 42.7033 50.2512C43.1442 50.7932 44.8811 51.5483 45.8506 51.6029C46.2484 51.6741 46.53 51.5727 46.53 51.5727C46.5291 51.5724 44.117 50.5565 43.155 49.2776C42.2265 48.0434 40.2473 46.787 40.1084 46.701C40.173 46.7607 40.7117 47.2466 41.0057 47.6966Z" fill="#F9C8A9"/>
<path d="M47.8921 48.6794C47.892 48.6817 47.891 48.6829 47.8912 48.6853C47.8995 48.8261 47.9527 50.8507 47.3328 52.1827C46.6991 53.5637 47.1993 55.7291 47.1972 55.7295C47.1991 55.7304 48.9778 54.1402 49.0996 52.9511C49.2621 51.5206 47.9398 48.7639 47.8921 48.6794Z" fill="#BC7546"/>
<path d="M47.5035 49.8544C47.026 50.7286 46.527 51.4258 46.1006 52.4678C45.8531 53.0756 46.2018 54.6481 46.7473 55.3077C46.9238 55.6073 47.1977 55.7295 47.1977 55.7295C47.2 55.7291 46.6995 53.5636 47.3333 52.1826C47.9533 50.8505 47.9 48.826 47.8917 48.6852C47.8759 48.7624 47.752 49.3982 47.5035 49.8544Z" fill="#F9C8A9"/>
<path d="M42.1311 50.548C42.133 50.5496 42.133 50.5513 42.1351 50.553C42.2513 50.6582 43.8947 52.1906 44.4982 53.5395C45.1247 54.9368 47.2436 56.3046 47.244 56.305C47.2479 56.3056 47.2924 54.1467 46.4269 53.1736C45.3949 51.9999 42.2302 50.5902 42.1311 50.548Z" fill="#BC7546"/>
<path d="M42.7729 51.6633C43.1118 52.5926 43.2934 53.3955 43.8046 54.4196C44.1029 55.0171 45.6237 56.0242 46.5658 56.2288C46.9396 56.3603 47.2441 56.3052 47.2441 56.3052C47.2436 56.3048 45.1246 54.937 44.4981 53.5396C43.8947 52.1907 42.2512 50.6584 42.135 50.5532C42.184 50.6214 42.5953 51.1788 42.7729 51.6633Z" fill="#F9C8A9"/>
<path d="M49.417 53.5476C49.4165 53.5499 49.4151 53.551 49.4148 53.5532C49.3891 53.6919 48.946 55.6778 48.0068 56.8901C47.0428 58.1477 47.005 60.3441 47.002 60.3442C47.003 60.3451 49.1494 59.0483 49.5638 57.9032C50.0785 56.5269 49.4447 53.637 49.417 53.5476Z" fill="#BC7546"/>
<path d="M48.745 54.6381C48.0587 55.4221 47.3948 56.0302 46.7192 56.9876C46.3265 57.5461 46.2865 59.138 46.662 59.8647C46.7626 60.1844 47.0021 60.3443 47.0021 60.3443C47.0052 60.3443 47.043 58.1478 48.0071 56.8903C48.9462 55.678 49.3894 53.692 49.4151 53.5533C49.3803 53.6262 49.1025 54.229 48.745 54.6381Z" fill="#F9C8A9"/>
<path d="M43.2607 54.5253C43.2623 54.5272 43.262 54.5288 43.2636 54.5308C43.3533 54.6506 44.6096 56.3919 44.876 57.8021C45.1555 59.263 46.9068 60.9152 46.9068 60.9152C46.9104 60.9164 47.4861 58.8066 46.8695 57.7268C46.1389 56.4253 43.3495 54.5807 43.2607 54.5253Z" fill="#BC7546"/>
<path d="M43.6269 55.7113C43.7376 56.6711 43.7223 57.4845 43.9778 58.5633C44.1269 59.1925 45.3797 60.4026 46.2574 60.7414C46.5935 60.9253 46.9067 60.9158 46.9067 60.9158C46.9069 60.9154 45.1556 59.2631 44.8761 57.8023C44.6095 56.3919 43.3536 54.6509 43.2637 54.5309C43.2958 54.605 43.5682 55.2107 43.6269 55.7113Z" fill="#F9C8A9"/>
<path d="M49.4871 59.2175C49.4858 59.2197 49.4842 59.2204 49.483 59.2225C49.4118 59.3506 48.3141 61.1708 46.998 62.1502C45.6432 63.1672 44.8697 65.284 44.8662 65.2836C44.8666 65.284 47.3752 64.4636 48.1637 63.4437C49.1276 62.2196 49.4852 59.3088 49.4871 59.2175Z" fill="#BC7546"/>
<path d="M48.4687 60.1298C47.54 60.7447 46.6927 61.196 45.7187 61.9831C45.1521 62.4425 44.5813 63.9726 44.6992 64.7513C44.689 65.0807 44.866 65.2836 44.8662 65.2836C44.8697 65.284 45.6434 63.1673 46.9979 62.1502C48.3141 61.1708 49.4116 59.3504 49.483 59.2225C49.4246 59.2855 48.9527 59.8086 48.4687 60.1298Z" fill="#F9C8A9"/>
<path d="M43.1836 58.908C43.1844 58.9102 43.1837 58.9116 43.1844 58.9139C43.2332 59.0478 43.8759 60.9807 43.6633 62.3973C43.4483 63.8653 44.5825 65.8164 44.5812 65.817C44.5844 65.818 45.8513 63.8937 45.6162 62.727C45.3473 61.3221 43.2527 58.9792 43.1836 58.908Z" fill="#BC7546"/>
<path d="M43.1471 60.1263C42.9371 61.075 42.6533 61.8579 42.5417 62.9524C42.4775 63.591 43.2824 65.0134 44.0139 65.5177C44.2761 65.7631 44.5812 65.817 44.5812 65.817C44.5825 65.8166 43.4485 63.8652 43.6633 62.3973C43.8759 60.9806 43.2332 59.0478 43.1844 58.9139C43.191 58.9918 43.2562 59.6313 43.1471 60.1263Z" fill="#F9C8A9"/>
<path d="M48.1214 64.0338C48.12 64.0359 48.1184 64.0367 48.1169 64.0386C48.0355 64.1636 46.7923 65.9383 45.3963 66.8688C43.9589 67.8354 43.0184 69.9173 43.0151 69.9169C43.0153 69.9175 45.5932 69.1852 46.4637 68.1967C47.5264 67.0107 48.1125 64.1247 48.1214 64.0338Z" fill="#BC7546"/>
<path d="M47.0291 64.9072C46.0496 65.4878 45.165 65.9082 44.1271 66.6588C43.5233 67.0969 42.8324 68.6015 42.8897 69.381C42.8539 69.7088 43.0156 69.9169 43.0156 69.9169C43.0191 69.9172 43.9592 67.8354 45.3968 66.8688C46.7926 65.9382 48.036 64.1636 48.1174 64.0386C48.0541 64.0994 47.5396 64.604 47.0291 64.9072Z" fill="#F9C8A9"/>
<path d="M41.8235 63.5103C41.824 63.5124 41.8233 63.5139 41.8239 63.5162C41.8624 63.651 42.3578 65.598 42.0345 67.0015C41.7057 68.4564 42.6894 70.438 42.6882 70.4385C42.6914 70.4395 44.1111 68.5661 43.9664 67.3962C43.8068 65.988 41.8874 63.5835 41.8235 63.5103Z" fill="#BC7546"/>
<path d="M41.6925 64.7223C41.4085 65.6601 41.0636 66.4302 40.867 67.5164C40.7532 68.1502 41.4493 69.5943 42.1429 70.1212C42.3867 70.3746 42.688 70.4385 42.688 70.4385C42.6891 70.438 41.7054 68.4565 42.0341 67.0016C42.3574 65.598 41.8619 63.6511 41.8235 63.5162C41.8244 63.594 41.8398 64.233 41.6925 64.7223Z" fill="#F9C8A9"/>
<path d="M45.3726 69.3159C45.3707 69.3177 45.3686 69.3178 45.3666 69.3196C45.2423 69.4215 43.3959 70.8571 41.7247 71.4508C40.0002 72.069 38.3366 73.8823 38.333 73.8814C38.333 73.8814 41.0444 73.7326 42.2409 72.9684C43.6931 72.0535 45.331 69.4007 45.3726 69.3159Z" fill="#BC7546"/>
<path d="M44.0062 69.9163C42.8581 70.2601 41.861 70.4715 40.597 70.9698C39.8611 71.2608 38.6487 72.5668 38.413 73.3349C38.2569 73.6447 38.3325 73.8817 38.3325 73.8817C38.3359 73.8825 39.9996 72.0691 41.7242 71.451C43.3957 70.8571 45.2416 69.4216 45.3661 69.3198C45.2831 69.3642 44.6048 69.7364 44.0062 69.9163Z" fill="#F9C8A9"/>
<path d="M40.9445 74.0646C40.942 74.0661 40.9403 74.0659 40.9377 74.0673C40.7905 74.1504 38.6311 75.3125 36.8542 75.6714C35.0188 76.0462 32.9525 77.6152 32.9495 77.6141C32.9495 77.6141 35.627 77.833 36.983 77.2411C38.6251 76.5338 40.8826 74.1419 40.9445 74.0646Z" fill="#BC7546"/>
<path d="M39.4615 74.4687C38.2548 74.6502 37.2287 74.7223 35.8726 75.0425C35.0827 75.2295 33.5804 76.3558 33.1624 77.0841C32.9341 77.3693 32.9497 77.6141 32.9497 77.6141C32.9526 77.615 35.0191 76.0461 36.8545 75.6714C38.6314 75.3123 40.7909 74.1503 40.938 74.0673C40.8458 74.0998 40.0908 74.3734 39.4615 74.4687Z" fill="#F9C8A9"/>
<path d="M39.5666 67.4233C39.5665 67.4256 39.565 67.4268 39.565 67.4291C39.553 67.5678 39.3105 69.5559 38.4849 70.8443C37.6376 72.1804 37.8321 74.316 37.8296 74.3161C37.8312 74.3172 39.8739 72.81 40.1718 71.6476C40.5461 70.2504 39.6027 67.5079 39.5666 67.4233Z" fill="#BC7546"/>
<path d="M38.9985 68.5654C38.3844 69.4097 37.7742 70.0793 37.1879 71.0888C36.8473 71.6778 36.9733 73.2289 37.4324 73.8902C37.5685 74.1888 37.8295 74.3162 37.8295 74.3162C37.8319 74.316 37.6375 72.1804 38.4848 70.8443C39.3104 69.556 39.5528 67.5678 39.5649 67.4291C39.5374 67.5044 39.3183 68.1249 38.9985 68.5654Z" fill="#F9C8A9"/>
<path d="M35.9907 71.8282C35.9903 71.8302 35.9883 71.8309 35.988 71.833C35.9468 71.951 35.2981 73.6371 34.3094 74.6497C33.292 75.7008 32.9887 77.5756 32.9863 77.5753C32.9872 77.576 35.058 76.5206 35.5705 75.5529C36.1995 74.3903 36.0034 71.9057 35.9907 71.8282Z" fill="#BC7546"/>
<path d="M35.2516 72.7436C34.5401 73.3966 33.8711 73.9001 33.1492 74.7015C32.7291 75.1692 32.4962 76.5282 32.7417 77.1577C32.792 77.433 32.9861 77.5753 32.9861 77.5753C32.9884 77.5755 33.2918 75.7006 34.3092 74.6497C35.2977 73.637 35.9466 71.951 35.9877 71.8329C35.9474 71.8945 35.6223 72.4027 35.2516 72.7436Z" fill="#F9C8A9"/>
<path d="M32.0195 78.1068C32.0195 79.1536 30.0217 80.0021 27.5573 80.0021C25.0928 80.0021 23.095 79.1536 23.095 78.1068C23.095 77.0601 25.0928 76.2115 27.5573 76.2115C30.0216 76.2116 32.0195 77.0601 32.0195 78.1068Z" fill="#BC7546"/>
<path d="M27.5575 79.6707C25.1249 79.6707 23.4297 78.8465 23.4297 78.1068C23.4297 77.3672 25.1249 76.5429 27.5575 76.5429C29.9902 76.5429 31.6854 77.3672 31.6854 78.1068C31.6854 78.8465 29.9901 79.6707 27.5575 79.6707Z" fill="#F9C8A9"/>
<path d="M27.0373 68.5296C24.173 68.5296 21.3338 68.0156 19.2484 67.1188L18.5322 66.8108V60.3095H20.6013L20.8848 60.4796C22.5031 61.4487 24.8278 62.1003 26.6691 62.1003C29.552 62.1003 29.552 60.7392 29.552 60.2919C29.552 59.6979 29.552 59.0834 26.6087 59.0834C26.2852 59.0834 25.9564 59.0888 25.6277 59.0947C25.2856 59.1001 24.9434 59.1059 24.6071 59.1059H23.4175V53.0482L25.9425 53.0539C26.8382 53.0539 28.7017 53.0539 29.1204 52.4598C29.182 52.351 29.308 51.911 29.1652 51.6307C29.024 51.354 28.5419 51.1505 27.8425 51.0723C27.5045 51.0342 27.1611 51.015 26.822 51.015C25.0323 51.015 23.2252 51.5428 21.4518 52.5842L21.1713 52.7488H19.1359V46.2801L19.8817 45.9828C22.0618 45.1136 24.9557 44.5946 27.6219 44.5946C31.8134 44.5946 34.8381 45.8363 36.1404 48.0911C37.057 49.6834 37.1314 51.6811 36.3397 53.4359C35.9313 54.3399 35.3289 55.1104 34.5831 55.7062C36.2374 56.6854 37.2958 58.3263 37.4474 60.3188C37.7507 64.3005 34.5291 67.0969 31.4087 68.0093C30.2443 68.3495 28.7328 68.5296 27.0373 68.5296Z" fill="#BC7546"/>
<path d="M31.0713 66.8787C28.3717 67.6681 23.1688 67.5195 19.7217 66.0372V61.4885H20.2694C23.9084 63.6686 30.741 64.4765 30.741 60.2919C30.741 57.5082 27.4575 57.927 24.6069 57.927V54.2269C26.8856 54.2269 29.2182 54.3788 30.0953 53.135C30.4404 52.6457 31.1719 50.2582 27.976 49.9008C25.4347 49.6145 23.0165 50.2953 20.8447 51.57H20.3253V47.0764C24.666 45.3461 32.9008 44.8555 35.1068 48.6763C36.6087 51.2839 35.1472 55.047 31.7377 55.7708V55.9659C37.9209 56.8075 37.8674 64.8907 31.0713 66.8787Z" fill="#F9C8A9"/>
</svg>
