<svg width="56" height="86" viewBox="0 0 56 86" fill="none" xmlns="http://www.w3.org/2000/svg">
<path d="M45.2709 0L35.5624 26.867H30.168L39.848 0.0218664V0H45.2709Z" fill="#9871F3"/>
<path d="M39.8478 6.10352e-05V0.0219274L30.1678 26.8671H24.8411L34.5212 0.0219274V6.10352e-05H39.8478Z" fill="#F0F0F0"/>
<path d="M34.5213 0V0.0218664L24.8411 26.867H19.3994L29.1079 0H34.5213Z" fill="#6F9DE2"/>
<path d="M39.355 27.2671C40.0679 28.8428 40.4639 30.5387 40.527 32.2597C36.7114 30.3277 32.3879 29.2382 27.8089 29.2382C22.9744 29.2382 18.4269 30.4527 14.46 32.5879C14.4805 30.7544 14.8827 28.9427 15.6399 27.267L15.9932 26.4871C16.3875 25.6133 17.2078 25.0021 18.1652 24.8693L19.2078 24.7239C24.7064 23.9611 30.2885 23.9611 35.7887 24.7239L36.8297 24.8693C37.7872 25.0022 38.6074 25.6133 39.0018 26.4871L39.355 27.2671ZM36.5489 28.0346V27.0092C36.5489 26.7122 36.306 26.4715 36.0064 26.4715H18.9885C18.6888 26.4715 18.4459 26.7122 18.4459 27.0092V28.0346C18.4459 28.3331 18.6888 28.5738 18.9885 28.5738H36.0064C36.306 28.5738 36.5489 28.3332 36.5489 28.0346Z" fill="#C9C9C9"/>
<path d="M9.68945 0L19.3979 26.867H24.7924L15.1124 0.0218664V0H9.68945Z" fill="#6F9DE2"/>
<path d="M15.1123 0V0.0218664L24.7923 26.867H30.119L20.4388 0.0218664V0H15.1123Z" fill="#F0F0F0"/>
<path d="M20.4385 0V0.0218664L30.1186 26.867H35.5604L25.852 0H20.4385Z" fill="#9871F3"/>
<path d="M40.7172 32.2598C49.7885 36.8491 56 46.1981 56 56.9852C56 72.31 43.4634 84.7337 27.9993 84.7337C12.5351 84.7337 0 72.3101 0 56.9852C0 46.4513 5.92291 37.2882 14.6502 32.588C18.6173 30.4528 23.1647 29.2382 27.9992 29.2382C32.5782 29.2382 36.9017 30.3277 40.7172 32.2598Z" fill="#B8B8B8"/>
<path d="M27.9992 82.5223C21.1161 82.5223 14.6453 79.8659 9.77851 75.0426C4.91169 70.2193 2.23145 63.8063 2.23145 56.9851C2.23145 47.6145 7.39805 39.0108 15.7149 34.5316C19.4609 32.5154 23.7088 31.4495 27.9991 31.4495C32.122 31.4495 36.0597 32.3849 39.7027 34.2296C43.8691 36.3374 47.3838 39.5325 49.8674 43.4696C52.4195 47.5155 53.7685 52.1891 53.7685 56.9852C53.7685 63.8063 51.0879 70.2192 46.2207 75.0426C41.3535 79.866 34.8823 82.5223 27.9992 82.5223Z" fill="#C9C9C9"/>
<path d="M23.4242 32.7095C23.422 32.7112 23.4221 32.7129 23.42 32.7146C23.2995 32.8216 21.5919 34.3779 20.9219 35.7318C20.2259 37.1342 18.0626 38.5401 18.0624 38.5406C18.0586 38.5409 18.1337 36.3935 19.0412 35.4084C20.1236 34.2198 23.3239 32.7533 23.4242 32.7095Z" fill="#929292"/>
<path d="M22.7282 33.8308C22.3416 34.7613 22.1173 35.5635 21.5562 36.5927C21.2289 37.1931 19.6742 38.2271 18.7347 38.4504C18.3591 38.589 18.0623 38.5407 18.0623 38.5407C18.0626 38.5401 20.2258 37.1344 20.9219 35.7319C21.5918 34.3779 23.2991 32.8216 23.4199 32.7147C23.3677 32.7836 22.9306 33.3456 22.7282 33.8308Z" fill="#E6E6E6"/>
<path d="M25.9629 37.1515C25.9601 37.1519 25.9587 37.1531 25.9559 37.1534C25.7867 37.1762 23.3565 37.523 21.8075 38.2527C20.2023 39.0101 17.5479 38.959 17.5479 38.959C17.5457 38.958 19.3219 37.2761 20.7404 36.9705C22.4443 36.5998 25.8556 37.1347 25.9629 37.1515Z" fill="#929292"/>
<path d="M24.5889 37.6891C23.5821 38.2366 22.7893 38.765 21.5736 39.2908C20.8645 39.5983 18.9357 39.5851 18.0941 39.2521C17.7175 39.1587 17.5481 38.9585 17.5481 38.9585C17.5481 38.9585 20.2026 39.01 21.8077 38.2526C23.3566 37.523 25.7869 37.1762 25.9561 37.1533C25.8651 37.1815 25.1143 37.4041 24.5889 37.6891Z" fill="#E6E6E6"/>
<path d="M18.1918 35.7625C18.1901 35.7644 18.1903 35.766 18.1885 35.768C18.0878 35.8874 16.6779 37.6215 16.2732 39.0312C15.8508 40.491 13.9649 42.1374 13.965 42.1378C13.9612 42.1384 13.6086 40.0239 14.3238 38.9469C15.173 37.6484 18.0989 35.8175 18.1918 35.7625Z" fill="#929292"/>
<path d="M17.7116 36.9462C17.5056 37.9051 17.4378 38.7185 17.0777 39.7967C16.8672 40.4256 15.5152 41.6312 14.6196 41.9664C14.271 42.1489 13.9646 42.138 13.9646 42.138C13.9643 42.1375 15.8505 40.4912 16.2727 39.0313C16.6772 37.6217 18.0875 35.8877 18.1881 35.7681C18.149 35.842 17.8198 36.4461 17.7116 36.9462Z" fill="#E6E6E6"/>
<path d="M21.5979 39.8043C21.5953 39.8049 21.5939 39.8064 21.5912 39.8069C21.4265 39.8499 19.061 40.4872 17.6544 41.3937C16.1976 42.3338 13.5325 42.6119 13.532 42.6116C13.5293 42.6112 14.9726 40.7423 16.3339 40.2676C17.9681 39.6934 21.4881 39.8004 21.5979 39.8043Z" fill="#929292"/>
<path d="M20.3269 40.4998C19.4263 41.1602 18.7364 41.776 17.6244 42.4415C16.9762 42.8301 15.0452 43.0546 14.1369 42.8321C13.7417 42.787 13.532 42.6116 13.532 42.6116C13.5325 42.6119 16.1976 42.3339 17.6544 41.3938C19.061 40.4874 21.4265 39.85 21.5912 39.807C21.5056 39.8458 20.7975 40.1557 20.3269 40.4998Z" fill="#E6E6E6"/>
<path d="M13.3021 39.6293C13.3008 39.6315 13.3015 39.633 13.3004 39.6352C13.2362 39.7688 12.3658 41.7008 12.3979 43.1293C12.4257 44.6091 11.0731 46.5551 11.0744 46.5558C11.0709 46.5565 10.0689 44.5989 10.4442 43.4294C10.8817 42.0203 13.2254 39.6996 13.3021 39.6293Z" fill="#929292"/>
<path d="M13.1858 40.854C13.2734 41.8111 13.4539 42.6028 13.4273 43.7056C13.4108 44.349 12.446 45.7676 11.6668 46.2635C11.3795 46.5064 11.074 46.5557 11.074 46.5557C11.0731 46.5551 12.4257 44.609 12.3978 43.1293C12.3655 41.7007 13.2359 39.7688 13.3003 39.6351C13.284 39.7133 13.1408 40.3548 13.1858 40.854Z" fill="#E6E6E6"/>
<path d="M17.8946 42.8382C17.8921 42.8393 17.8911 42.8409 17.8887 42.842C17.7389 42.9148 15.5943 43.9825 14.4839 45.1249C13.3339 46.3086 10.7947 47.0941 10.7947 47.0941C10.7907 47.0941 11.6363 45.0207 12.8366 44.3014C14.2751 43.4326 17.7855 42.855 17.8946 42.8382Z" fill="#929292"/>
<path d="M16.8498 43.7505C16.1605 44.558 15.6671 45.2824 14.7744 46.1362C14.2542 46.6347 12.4224 47.2244 11.4587 47.1879C11.0555 47.2215 10.7945 47.0943 10.7947 47.0942C10.7953 47.0941 13.3345 46.3087 14.4843 45.1249C15.5948 43.9825 17.7393 42.9149 17.8892 42.842C17.8162 42.8957 17.2102 43.3296 16.8498 43.7505Z" fill="#E6E6E6"/>
<path d="M9.76942 43.9567C9.76857 43.959 9.76965 43.9603 9.76872 43.9626C9.72521 44.1006 9.16041 46.091 9.42233 47.5C9.6868 48.9601 8.64728 51.0128 8.64859 51.0133C8.64558 51.0142 7.32617 49.1724 7.51299 47.9813C7.72327 46.5471 9.70315 44.0333 9.76942 43.9567Z" fill="#929292"/>
<path d="M9.84782 45.1774C10.0888 46.1146 10.3958 46.88 10.5455 47.973C10.6318 48.6106 9.89328 50.1046 9.19394 50.6686C8.94557 50.9358 8.6482 51.0135 8.6482 51.0135C8.64657 51.0129 9.68617 48.9601 9.42185 47.5002C9.15986 46.091 9.72496 44.1007 9.76824 43.9628C9.76437 44.0413 9.72302 44.6884 9.84782 45.1774Z" fill="#E6E6E6"/>
<path d="M14.8825 46.6965C14.8801 46.6979 14.8798 46.6995 14.8773 46.7008C14.7385 46.7867 12.7593 48.0432 11.8308 49.2774C10.8686 50.5563 8.45668 51.5722 8.45583 51.5725C8.45211 51.5726 8.96271 49.4419 10.05 48.6177C11.351 47.6229 14.7759 46.7232 14.8825 46.6965Z" fill="#929292"/>
<path d="M13.9799 47.6965C13.4174 48.5598 13.039 49.3225 12.2823 50.2512C11.8414 50.7932 10.1046 51.5483 9.13509 51.6029C8.73738 51.6741 8.45581 51.5727 8.45581 51.5727C8.45658 51.5724 10.8687 50.5565 11.8307 49.2776C12.7592 48.0434 14.7384 46.787 14.8773 46.701C14.8128 46.7607 14.2739 47.2465 13.9799 47.6965Z" fill="#E6E6E6"/>
<path d="M7.09416 48.6794C7.09423 48.6817 7.09524 48.683 7.09501 48.6854C7.08672 48.8261 7.03353 50.8508 7.65336 52.1828C8.28712 53.5637 7.78692 55.7292 7.78909 55.7295C7.78715 55.7305 6.00849 54.1403 5.88663 52.9511C5.72413 51.5207 7.04647 48.764 7.09416 48.6794Z" fill="#929292"/>
<path d="M7.48311 49.8544C7.96064 50.7286 8.45962 51.4259 8.88613 52.4678C9.13357 53.0757 8.78486 54.6482 8.23943 55.3078C8.06291 55.6074 7.78909 55.7294 7.78909 55.7294C7.78676 55.7292 8.28727 53.5636 7.65335 52.1827C7.03345 50.8506 7.08672 48.8261 7.095 48.6852C7.1108 48.7625 7.23459 49.3982 7.48311 49.8544Z" fill="#E6E6E6"/>
<path d="M12.8554 50.5482C12.8535 50.5498 12.8535 50.5515 12.8514 50.5532C12.7353 50.6584 11.0918 52.1908 10.4883 53.5397C9.86171 54.9369 7.74294 56.3048 7.74247 56.3052C7.7386 56.3058 7.6941 54.1468 8.55966 53.1738C9.5916 52.0001 12.7563 50.5903 12.8554 50.5482Z" fill="#929292"/>
<path d="M12.2131 51.6635C11.8741 52.5928 11.6926 53.3957 11.1814 54.4198C10.8831 55.0173 9.36228 56.0244 8.42007 56.229C8.04636 56.3605 7.74179 56.3054 7.74194 56.3054C7.74218 56.305 9.86118 54.9372 10.4877 53.5398C11.0911 52.1909 12.7346 50.6586 12.8509 50.5533C12.8019 50.6216 12.3907 51.1789 12.2131 51.6635Z" fill="#E6E6E6"/>
<path d="M5.5693 53.5476C5.56977 53.55 5.57124 53.551 5.57155 53.5533C5.59718 53.692 6.04034 55.6778 6.97953 56.8902C7.94357 58.1478 7.98135 60.3441 7.98437 60.3443C7.98321 60.3451 5.83687 59.0484 5.42251 57.9033C4.90782 56.527 5.54159 53.6371 5.5693 53.5476Z" fill="#929292"/>
<path d="M6.24227 54.6382C6.9286 55.4221 7.59256 56.0303 8.26813 56.9877C8.66081 57.5462 8.70084 59.1381 8.32535 59.8649C8.2247 60.1844 7.98516 60.3445 7.98516 60.3445C7.98214 60.3444 7.94421 58.148 6.98024 56.8904C6.04105 55.6781 5.59789 53.6921 5.57227 53.5535C5.60695 53.6264 5.88474 54.2291 6.24227 54.6382Z" fill="#E6E6E6"/>
<path d="M11.7266 54.5251C11.7251 54.5271 11.7253 54.5287 11.7237 54.5307C11.634 54.6505 10.3778 56.3918 10.1113 57.8019C9.83197 59.2629 8.08064 60.915 8.08079 60.9156C8.077 60.9163 7.5013 58.8065 8.11795 57.7266C8.84849 56.4252 11.6379 54.5806 11.7266 54.5251Z" fill="#929292"/>
<path d="M11.361 55.7114C11.2503 56.6712 11.2655 57.4845 11.01 58.5633C10.8609 59.1926 9.60802 60.4027 8.73038 60.7415C8.39422 60.9253 8.08105 60.9159 8.08105 60.9159C8.08082 60.9154 9.83216 59.2632 10.1116 57.8023C10.3783 56.3919 11.6343 54.651 11.7241 54.531C11.6919 54.605 11.4195 55.2108 11.361 55.7114Z" fill="#E6E6E6"/>
<path d="M5.49878 59.2175C5.5001 59.2196 5.50172 59.2204 5.50288 59.2225C5.57411 59.3505 6.67177 61.1707 7.98792 62.1502C9.34271 63.1672 10.1162 65.284 10.1197 65.2836C10.1193 65.284 7.61074 64.4636 6.82221 63.4437C5.85832 62.2196 5.50064 59.3088 5.49878 59.2175Z" fill="#929292"/>
<path d="M6.5173 60.1299C7.44604 60.7449 8.29325 61.1962 9.26736 61.9832C9.83392 62.4426 10.4047 63.9727 10.2868 64.7514C10.2971 65.0808 10.12 65.2837 10.12 65.2837C10.1163 65.2841 9.34252 63.1674 7.98797 62.1503C6.67182 61.1709 5.57423 59.3506 5.50293 59.2227C5.5613 59.2856 6.03334 59.8087 6.5173 60.1299Z" fill="#E6E6E6"/>
<path d="M11.8025 58.908C11.8018 58.9102 11.8024 58.9116 11.8017 58.9139C11.7529 59.0479 11.1102 60.9808 11.3228 62.3974C11.5378 63.8653 10.4036 65.8165 10.4049 65.817C10.4017 65.818 9.13479 63.8938 9.36992 62.7271C9.63872 61.3222 11.7335 58.9793 11.8025 58.908Z" fill="#929292"/>
<path d="M11.8391 60.1263C12.0491 61.0751 12.333 61.858 12.4445 62.9525C12.5088 63.5911 11.7039 65.0135 10.9723 65.5177C10.7101 65.7632 10.405 65.817 10.405 65.817C10.4038 65.8166 11.5378 63.8653 11.323 62.3974C11.1104 60.9807 11.7532 59.0478 11.8019 58.9139C11.7952 58.9919 11.73 59.6314 11.8391 60.1263Z" fill="#E6E6E6"/>
<path d="M6.86597 64.0339C6.86736 64.036 6.86899 64.0367 6.87047 64.0388C6.95199 64.1637 8.1952 65.9384 9.5911 66.8689C11.0285 67.8355 11.969 69.9175 11.9723 69.917C11.9721 69.9176 9.39422 69.1853 8.52371 68.1968C7.46095 67.0108 6.87487 64.1247 6.86597 64.0339Z" fill="#929292"/>
<path d="M7.95914 64.9074C8.93859 65.488 9.8232 65.9083 10.861 66.659C11.4649 67.0971 12.1558 68.6017 12.0985 69.3812C12.1343 69.7089 11.9726 69.917 11.9726 69.917C11.9692 69.9174 11.029 67.8356 9.59148 66.869C8.19551 65.9384 6.95222 64.1638 6.87085 64.0388C6.93402 64.0996 7.44855 64.6042 7.95914 64.9074Z" fill="#E6E6E6"/>
<path d="M13.1642 63.5104C13.1636 63.5125 13.1642 63.514 13.1637 63.5162C13.1252 63.6512 12.6299 65.5981 12.9531 67.0017C13.2818 68.4565 12.2981 70.4381 12.2993 70.4386C12.2961 70.4396 10.8765 68.5662 11.0211 67.3963C11.1808 65.9881 13.1003 63.5836 13.1642 63.5104Z" fill="#929292"/>
<path d="M13.2946 64.7224C13.5786 65.6602 13.9235 66.4303 14.1201 67.5165C14.2339 68.1503 13.5378 69.5944 12.8442 70.1213C12.6004 70.3747 12.2991 70.4386 12.2991 70.4386C12.2979 70.4381 13.2817 68.4565 12.953 67.0016C12.6296 65.5981 13.1252 63.6512 13.1636 63.5162C13.1628 63.594 13.1472 64.2331 13.2946 64.7224Z" fill="#E6E6E6"/>
<path d="M9.61499 69.316C9.617 69.3177 9.61908 69.3179 9.6211 69.3197C9.74536 69.4215 11.5918 70.8571 13.263 71.4509C14.9875 72.069 16.6511 73.8823 16.6547 73.8815C16.6552 73.8815 13.9433 73.7326 12.7467 72.9685C11.2946 72.0535 9.65664 69.4007 9.61499 69.316Z" fill="#929292"/>
<path d="M10.9808 69.9162C12.1288 70.26 13.126 70.4713 14.3899 70.9697C15.1259 71.2607 16.3382 72.5666 16.5739 73.3348C16.7301 73.6444 16.6544 73.8814 16.6544 73.8814C16.651 73.8823 14.9873 72.069 13.2627 71.4509C11.5912 70.857 9.74526 69.4215 9.62085 69.3196C9.70369 69.3641 10.382 69.7363 10.9808 69.9162Z" fill="#E6E6E6"/>
<path d="M14.0427 74.0648C14.0452 74.0662 14.0469 74.0661 14.0495 74.0675C14.1967 74.1506 16.3561 75.3127 18.1331 75.6716C19.9685 76.0464 22.0348 77.6154 22.0378 77.6143C22.0378 77.6143 19.3604 77.8332 18.0042 77.2413C16.3621 76.534 14.1046 74.1421 14.0427 74.0648Z" fill="#929292"/>
<path d="M15.5261 74.469C16.7328 74.6505 17.7589 74.7226 19.1149 75.0428C19.9048 75.2298 21.4072 76.3561 21.8252 77.0844C22.0534 77.3696 22.0378 77.6143 22.0378 77.6143C22.035 77.6153 19.9685 76.0464 18.1331 75.6717C16.3562 75.3126 14.1966 74.1506 14.0496 74.0676C14.1418 74.1 14.8968 74.3737 15.5261 74.469Z" fill="#E6E6E6"/>
<path d="M15.4204 67.4233C15.4205 67.4256 15.422 67.4267 15.4221 67.429C15.434 67.5678 15.6765 69.556 16.5021 70.8443C17.3493 72.1804 17.1549 74.316 17.1575 74.3161C17.1559 74.3172 15.1131 72.81 14.8152 71.6476C14.4409 70.2504 15.3843 67.5079 15.4204 67.4233Z" fill="#929292"/>
<path d="M15.9882 68.5655C16.6024 69.4097 17.2125 70.0794 17.7988 71.0889C18.1393 71.6779 18.0134 73.2289 17.5543 73.8903C17.4182 74.1888 17.1573 74.3162 17.1573 74.3162C17.1549 74.3161 17.3493 72.1805 16.5019 70.8444C15.6763 69.5561 15.434 67.5679 15.4219 67.4291C15.4493 67.5045 15.6684 68.1249 15.9882 68.5655Z" fill="#E6E6E6"/>
<path d="M18.9965 71.8284C18.997 71.8303 18.999 71.8311 18.9992 71.8332C19.0403 71.9512 19.6891 73.6373 20.6777 74.6499C21.6952 75.701 21.9985 77.5758 22.0009 77.5755C22 77.5761 19.9291 76.5207 19.4167 75.553C18.7877 74.3905 18.9838 71.9059 18.9965 71.8284Z" fill="#929292"/>
<path d="M19.7349 72.7437C20.4464 73.3966 21.1154 73.9002 21.8373 74.7017C22.2573 75.1693 22.4903 76.5283 22.2448 77.1578C22.1945 77.4332 22.0004 77.5754 22.0004 77.5754C21.9981 77.5756 21.6947 75.7007 20.6773 74.6498C19.6888 73.6371 19.0399 71.9511 18.9988 71.8331C19.039 71.8946 19.3642 72.4028 19.7349 72.7437Z" fill="#E6E6E6"/>
<path d="M31.5615 32.7095C31.5638 32.7112 31.5637 32.7129 31.5658 32.7145C31.6862 32.8215 33.3938 34.3778 34.0638 35.7318C34.7599 37.1342 36.9231 38.5401 36.9234 38.5405C36.9272 38.5408 36.8521 36.3934 35.9445 35.4084C34.8621 34.2198 31.6618 32.7533 31.5615 32.7095Z" fill="#929292"/>
<path d="M32.2572 33.8308C32.6437 34.7613 32.868 35.5634 33.4292 36.5926C33.7564 37.1931 35.3111 38.2271 36.2507 38.4503C36.6263 38.589 36.923 38.5406 36.923 38.5406C36.9226 38.54 34.7596 37.1343 34.0635 35.7318C33.3936 34.3778 31.6861 32.8216 31.5654 32.7146C31.6177 32.7835 32.0547 33.3456 32.2572 33.8308Z" fill="#E6E6E6"/>
<path d="M29.0225 37.1515C29.0252 37.1519 29.0267 37.153 29.0294 37.1533C29.1986 37.1762 31.6288 37.523 33.1779 38.2526C34.783 39.01 37.4375 38.9589 37.4375 38.9589C37.4396 38.9579 35.6635 37.2761 34.2449 36.9704C32.5411 36.5998 29.1298 37.1347 29.0225 37.1515Z" fill="#929292"/>
<path d="M30.3965 37.689C31.4032 38.2365 32.1961 38.765 33.4118 39.2908C34.1209 39.5982 36.0497 39.5851 36.8913 39.252C37.2679 39.1586 37.4373 38.9585 37.4373 38.9585C37.4373 38.9585 34.7828 39.01 33.1777 38.2525C31.6289 37.5229 29.1985 37.1761 29.0293 37.1533C29.1204 37.1814 29.8712 37.4041 30.3965 37.689Z" fill="#E6E6E6"/>
<path d="M36.7949 35.7624C36.7966 35.7643 36.7965 35.7659 36.7983 35.7678C36.8989 35.8873 38.3089 37.6214 38.7136 39.031C39.136 40.4909 41.0219 42.1372 41.0217 42.1377C41.0256 42.1382 41.3782 40.0238 40.6629 38.9468C39.8138 37.6483 36.8878 35.8174 36.7949 35.7624Z" fill="#929292"/>
<path d="M37.2744 36.9461C37.4804 37.905 37.5481 38.7184 37.9083 39.7966C38.1187 40.4255 39.4707 41.6311 40.3663 41.9662C40.715 42.1488 41.0213 42.1379 41.0213 42.1379C41.0216 42.1373 39.1354 40.4911 38.7132 39.0312C38.3087 37.6216 36.8984 35.8875 36.7979 35.768C36.8369 35.8419 37.1661 36.446 37.2744 36.9461Z" fill="#E6E6E6"/>
<path d="M33.3877 39.8042C33.3902 39.8048 33.3917 39.8063 33.3944 39.8068C33.5591 39.8498 35.9245 40.4871 37.3312 41.3936C38.7879 42.3337 41.4531 42.6117 41.4536 42.6115C41.4563 42.611 40.013 40.7421 38.6517 40.2675C37.0176 39.6933 33.4976 39.8003 33.3877 39.8042Z" fill="#929292"/>
<path d="M34.6585 40.4997C35.5592 41.1601 36.249 41.7758 37.3612 42.4413C38.0092 42.8299 39.9403 43.0545 40.8487 42.8319C41.2438 42.7869 41.4535 42.6115 41.4535 42.6115C41.453 42.6118 38.7878 42.3338 37.3311 41.3937C35.9245 40.4873 33.559 39.8499 33.3943 39.8069C33.48 39.8456 34.1881 40.1556 34.6585 40.4997Z" fill="#E6E6E6"/>
<path d="M41.6836 39.629C41.6848 39.6313 41.6841 39.6327 41.6852 39.6349C41.7496 39.7686 42.6199 41.7006 42.5877 43.1291C42.56 44.6088 43.9125 46.5549 43.9114 46.5555C43.9148 46.5563 44.9168 44.5987 44.5415 43.4291C44.1038 42.0201 41.7602 39.6994 41.6836 39.629Z" fill="#929292"/>
<path d="M41.7998 40.8539C41.7121 41.8109 41.5317 42.6026 41.5583 43.7054C41.5747 44.3488 42.5396 45.7674 43.3188 46.2633C43.6061 46.5062 43.9116 46.5555 43.9116 46.5555C43.9124 46.5549 42.5599 44.6088 42.5877 43.1291C42.6201 41.7006 41.7496 39.7686 41.6852 39.6349C41.7016 39.7131 41.8448 40.3546 41.7998 40.8539Z" fill="#E6E6E6"/>
<path d="M37.0908 42.8381C37.0932 42.8392 37.0943 42.8408 37.0966 42.8418C37.2464 42.9147 39.3911 43.9824 40.5014 45.1247C41.6514 46.3085 44.1906 47.094 44.1911 47.094C44.1946 47.094 43.349 45.0205 42.1487 44.3013C40.7103 43.4325 37.1999 42.8549 37.0908 42.8381Z" fill="#929292"/>
<path d="M38.1361 43.7504C38.8255 44.5578 39.3187 45.2823 40.2114 46.1361C40.7316 46.6346 42.5635 47.2243 43.5271 47.1878C43.9303 47.2214 44.1914 47.0941 44.1911 47.0941C44.1905 47.094 41.6514 46.3086 40.5015 45.1248C39.3911 43.9824 37.2466 42.9147 37.0967 42.8419C37.1697 42.8955 37.7756 43.3295 38.1361 43.7504Z" fill="#E6E6E6"/>
<path d="M45.2161 43.9566C45.2169 43.9589 45.2158 43.9603 45.2168 43.9626C45.2603 44.1005 45.8251 46.091 45.5631 47.5C45.2987 48.96 46.3382 51.0128 46.3369 51.0132C46.3399 51.0141 47.6593 49.1723 47.4725 47.9812C47.2622 46.5471 45.2823 44.0333 45.2161 43.9566Z" fill="#929292"/>
<path d="M45.1373 45.1774C44.8965 46.1146 44.5894 46.8801 44.4398 47.9731C44.3534 48.6106 45.092 50.1047 45.7912 50.6687C46.0397 50.9359 46.337 51.0135 46.337 51.0135C46.3387 51.013 45.2991 48.9602 45.5634 47.5002C45.8254 46.0911 45.2603 44.1008 45.217 43.9628C45.2208 44.0414 45.2622 44.6885 45.1373 45.1774Z" fill="#E6E6E6"/>
<path d="M40.103 46.6964C40.1054 46.6978 40.1057 46.6995 40.1082 46.7008C40.247 46.7866 42.2262 48.0431 43.1548 49.2774C44.1169 50.5563 46.5289 51.5721 46.5297 51.5725C46.5334 51.5726 46.0228 49.4418 44.9355 48.6176C43.6345 47.6228 40.2096 46.7231 40.103 46.6964Z" fill="#929292"/>
<path d="M41.0062 47.6965C41.5687 48.5598 41.9471 49.3225 42.7038 50.2512C43.1447 50.7932 44.8816 51.5483 45.8511 51.6029C46.2488 51.6741 46.5305 51.5727 46.5305 51.5727C46.5295 51.5724 44.1175 50.5565 43.1555 49.2776C42.227 48.0434 40.2478 46.787 40.1089 46.701C40.1734 46.7607 40.7122 47.2465 41.0062 47.6965Z" fill="#E6E6E6"/>
<path d="M47.8921 48.6793C47.892 48.6816 47.891 48.6828 47.8912 48.6852C47.8995 48.826 47.9527 50.8506 47.3328 52.1826C46.6991 53.5635 47.1993 55.729 47.1971 55.7294C47.1991 55.7303 48.9777 54.1401 49.0995 52.9509C49.2621 51.5205 47.9397 48.7638 47.8921 48.6793Z" fill="#929292"/>
<path d="M47.503 49.8542C47.0255 50.7284 46.5265 51.4257 46.1001 52.4677C45.8526 53.0755 46.2013 54.648 46.7468 55.3076C46.9233 55.6072 47.1971 55.7292 47.1971 55.7292C47.1994 55.729 46.699 53.5634 47.3328 52.1825C47.9528 50.8504 47.8995 48.8259 47.8912 48.6851C47.8754 48.7623 47.7515 49.398 47.503 49.8542Z" fill="#E6E6E6"/>
<path d="M42.1306 50.548C42.1325 50.5496 42.1326 50.5513 42.1346 50.553C42.2508 50.6581 43.8942 52.1905 44.4978 53.5394C45.1243 54.9367 47.2431 56.3045 47.2436 56.305C47.2474 56.3055 47.2919 54.1466 46.4264 53.1735C45.3944 51.9999 42.2296 50.5901 42.1306 50.548Z" fill="#929292"/>
<path d="M42.7721 51.6631C43.1111 52.5924 43.2926 53.3953 43.8039 54.4194C44.1022 55.0169 45.6229 56.024 46.5651 56.2286C46.9388 56.3601 47.2433 56.305 47.2433 56.305C47.2429 56.3046 45.124 54.9368 44.4974 53.5394C43.894 52.1905 42.2505 50.6582 42.1343 50.553C42.1834 50.6213 42.5946 51.1786 42.7721 51.6631Z" fill="#E6E6E6"/>
<path d="M49.416 53.5474C49.4156 53.5497 49.4141 53.5507 49.4138 53.553C49.3882 53.6918 48.945 55.6776 48.0058 56.89C47.0418 58.1475 47.004 60.3439 47.001 60.344C47.0021 60.3449 49.1485 59.0481 49.5628 57.903C50.0775 56.5268 49.4438 53.6368 49.416 53.5474Z" fill="#929292"/>
<path d="M48.7443 54.6379C48.0579 55.4218 47.394 56.03 46.7185 56.9873C46.3258 57.5459 46.2858 59.1378 46.6612 59.8645C46.7619 60.1841 47.0014 60.3441 47.0014 60.3441C47.0045 60.344 47.0424 58.1476 48.0064 56.89C48.9455 55.6777 49.3887 53.6917 49.4143 53.5531C49.3796 53.626 49.1018 54.2287 48.7443 54.6379Z" fill="#E6E6E6"/>
<path d="M43.2588 54.5251C43.2603 54.527 43.26 54.5286 43.2616 54.5306C43.3514 54.6504 44.6076 56.3918 44.8741 57.8019C45.1535 59.2628 46.9048 60.915 46.9047 60.9155C46.9084 60.9162 47.4842 58.8065 46.8675 57.7266C46.1368 56.4251 43.3475 54.5806 43.2588 54.5251Z" fill="#929292"/>
<path d="M43.6247 55.7111C43.7355 56.671 43.7202 57.4843 43.9757 58.5631C44.1248 59.1923 45.3776 60.4025 46.2552 60.7413C46.5914 60.925 46.9046 60.9157 46.9046 60.9157C46.9048 60.9152 45.1535 59.263 44.8739 57.802C44.6074 56.3917 43.3514 54.6508 43.2615 54.5308C43.2938 54.6048 43.5661 55.2105 43.6247 55.7111Z" fill="#E6E6E6"/>
<path d="M49.4857 59.2175C49.4844 59.2196 49.4827 59.2204 49.4816 59.2225C49.4104 59.3505 48.3127 61.1707 46.9965 62.1502C45.6418 63.1672 44.8682 65.2839 44.8647 65.2836C44.8651 65.284 47.3737 64.4636 48.1622 63.4437C49.1261 62.2196 49.4837 59.3088 49.4857 59.2175Z" fill="#929292"/>
<path d="M48.4672 60.1298C47.5384 60.7447 46.6912 61.1961 45.7171 61.9831C45.1506 62.4425 44.5799 63.9726 44.6977 64.7513C44.6875 65.0807 44.8646 65.2836 44.8647 65.2836C44.8682 65.284 45.6419 63.1673 46.9965 62.1502C48.3126 61.1708 49.4102 59.3504 49.4815 59.2225C49.4231 59.2855 48.9512 59.8086 48.4672 60.1298Z" fill="#E6E6E6"/>
<path d="M43.1824 58.908C43.1831 58.9102 43.1825 58.9116 43.1832 58.9139C43.232 59.0478 43.8747 60.9807 43.6621 62.3973C43.4471 63.8653 44.5813 65.8164 44.58 65.817C44.5832 65.818 45.8501 63.8937 45.615 62.727C45.3461 61.3221 43.2515 58.9792 43.1824 58.908Z" fill="#929292"/>
<path d="M43.1459 60.1263C42.9358 61.075 42.6521 61.8579 42.5405 62.9524C42.4763 63.591 43.2811 65.0134 44.0127 65.5177C44.2748 65.7631 44.5799 65.817 44.5799 65.817C44.5813 65.8166 43.4472 63.8652 43.662 62.3973C43.8746 60.9806 43.232 59.0478 43.1832 58.9139C43.1898 58.9918 43.255 59.6313 43.1459 60.1263Z" fill="#E6E6E6"/>
<path d="M48.1203 64.0338C48.1189 64.0359 48.1173 64.0366 48.1157 64.0386C48.0343 64.1636 46.791 65.9383 45.3951 66.8688C43.9577 67.8354 43.0172 69.9173 43.0139 69.9169C43.0141 69.9175 45.5919 69.1852 46.4625 68.1967C47.5253 67.0107 48.1114 64.1246 48.1203 64.0338Z" fill="#929292"/>
<path d="M47.0278 64.9072C46.0484 65.4878 45.1638 65.9081 44.1259 66.6588C43.5221 67.0969 42.8312 68.6015 42.8885 69.381C42.8526 69.7087 43.0143 69.9169 43.0143 69.9169C43.0178 69.9172 43.9579 67.8354 45.3954 66.8688C46.7913 65.9382 48.0347 64.1636 48.1161 64.0386C48.053 64.0994 47.5384 64.604 47.0278 64.9072Z" fill="#E6E6E6"/>
<path d="M41.8223 63.5103C41.8228 63.5124 41.8222 63.5139 41.8226 63.5161C41.8612 63.651 42.3565 65.598 42.0333 67.0015C41.7045 68.4564 42.6883 70.438 42.687 70.4385C42.6903 70.4395 44.11 68.5661 43.9653 67.3962C43.8057 65.988 41.8862 63.5835 41.8223 63.5103Z" fill="#929292"/>
<path d="M41.6913 64.7223C41.4073 65.6601 41.0624 66.4302 40.8658 67.5164C40.7519 68.1502 41.4481 69.5943 42.1417 70.1212C42.3855 70.3746 42.6868 70.4385 42.6868 70.4385C42.688 70.4379 41.7042 68.4564 42.0329 67.0015C42.3562 65.5979 41.8608 63.6511 41.8223 63.5161C41.8231 63.5939 41.8386 64.233 41.6913 64.7223Z" fill="#E6E6E6"/>
<path d="M45.3714 69.3159C45.3695 69.3177 45.3674 69.3178 45.3654 69.3196C45.2411 69.4215 43.3946 70.8571 41.7234 71.4508C39.999 72.069 38.3354 73.8823 38.3318 73.8814C38.3318 73.8814 41.0431 73.7326 42.2397 72.9684C43.6918 72.0535 45.3297 69.4006 45.3714 69.3159Z" fill="#929292"/>
<path d="M44.0053 69.9162C42.8571 70.26 41.86 70.4714 40.596 70.9698C39.8602 71.2607 38.6477 72.5667 38.412 73.3349C38.2559 73.6445 38.3316 73.8815 38.3316 73.8815C38.335 73.8824 39.9986 72.0691 41.7232 71.4509C43.3947 70.8571 45.2407 69.4215 45.3651 69.3197C45.2822 69.3641 44.6039 69.7364 44.0053 69.9162Z" fill="#E6E6E6"/>
<path d="M40.9436 74.0646C40.941 74.066 40.9394 74.066 40.9367 74.0673C40.7896 74.1504 38.6302 75.3125 36.8532 75.6715C35.0178 76.0463 32.9515 77.6152 32.9485 77.6141C32.9485 77.6141 35.6259 77.833 36.982 77.2411C38.6242 76.5338 40.8816 74.1419 40.9436 74.0646Z" fill="#929292"/>
<path d="M39.4606 74.4689C38.254 74.6504 37.2279 74.7225 35.8719 75.0427C35.0819 75.2296 33.5796 76.356 33.1616 77.0843C32.9334 77.3695 32.949 77.6142 32.949 77.6142C32.9518 77.6152 35.0183 76.0463 36.8537 75.6716C38.6306 75.3125 40.7901 74.1505 40.9372 74.0674C40.845 74.0999 40.0899 74.3736 39.4606 74.4689Z" fill="#E6E6E6"/>
<path d="M39.5646 67.4232C39.5646 67.4255 39.5631 67.4267 39.563 67.429C39.551 67.5678 39.3085 69.5559 38.4829 70.8442C37.6357 72.1804 37.8301 74.316 37.8276 74.316C37.8292 74.3171 39.872 72.81 40.1698 71.6475C40.5441 70.2503 39.6008 67.5078 39.5646 67.4232Z" fill="#929292"/>
<path d="M38.9965 68.5654C38.3824 69.4095 37.7722 70.0793 37.1859 71.0888C36.8454 71.6778 36.9714 73.2288 37.4305 73.8902C37.5666 74.1887 37.8275 74.3161 37.8275 74.3161C37.8299 74.316 37.6355 72.1804 38.4828 70.8443C39.3085 69.5559 39.5508 67.5677 39.5629 67.429C39.5354 67.5044 39.3163 68.1248 38.9965 68.5654Z" fill="#E6E6E6"/>
<path d="M35.9888 71.8282C35.9884 71.8302 35.9864 71.8309 35.9861 71.833C35.945 71.951 35.2962 73.6371 34.3076 74.6497C33.2901 75.7008 32.9869 77.5756 32.9844 77.5754C32.9852 77.576 35.0561 76.5206 35.5685 75.5529C36.1977 74.3903 36.0016 71.9057 35.9888 71.8282Z" fill="#929292"/>
<path d="M35.2496 72.7436C34.5381 73.3965 33.8692 73.9001 33.1472 74.7015C32.7271 75.1692 32.4942 76.5282 32.7397 77.1577C32.7901 77.4331 32.9842 77.5753 32.9842 77.5753C32.9864 77.5755 33.2898 75.7006 34.3072 74.6497C35.2957 73.637 35.9447 71.951 35.9858 71.8329C35.9454 71.8945 35.6203 72.4027 35.2496 72.7436Z" fill="#E6E6E6"/>
<path d="M32.0195 78.1069C32.0195 79.1536 30.0217 80.0022 27.5573 80.0022C25.0927 80.0022 23.095 79.1536 23.095 78.1069C23.095 77.0602 25.0927 76.2116 27.5573 76.2116C30.0217 76.2117 32.0195 77.0602 32.0195 78.1069Z" fill="#929292"/>
<path d="M27.5575 79.6707C25.125 79.6707 23.4297 78.8465 23.4297 78.1068C23.4297 77.3672 25.1249 76.5429 27.5575 76.5429C29.9902 76.5429 31.6854 77.3672 31.6854 78.1068C31.6854 78.8465 29.9902 79.6707 27.5575 79.6707Z" fill="#E6E6E6"/>
<path d="M18.3779 68.0766V62.8734L18.8699 62.5205C23.5343 59.1755 28.302 55.4011 28.302 52.764C28.302 52.3225 28.302 50.9784 26.0511 50.9784C24.5949 50.9784 22.7936 51.6053 21.2322 52.6547L20.9296 52.8578H18.925V46.3025L19.6389 45.994C21.6359 45.1304 24.4339 44.5946 26.9416 44.5946C32.7375 44.5946 36.1978 47.3784 36.1978 52.041C36.1978 55.998 33.4055 59.1174 30.1318 61.7537H37.1667V68.0766H18.3779Z" fill="#929292"/>
<path d="M35.9771 66.8975H19.5674V63.4756C25.1884 59.4443 29.4916 55.8174 29.4916 52.7643C29.4916 49.0466 24.566 48.9898 20.5641 51.6791H20.1149V47.0745C24.3648 45.2369 35.0083 44.216 35.0083 52.0408C35.0083 56.4449 30.8569 59.8948 26.586 62.9328H35.977L35.9771 66.8975Z" fill="#EAEAEA"/>
</svg>
